<svg xmlns="http://www.w3.org/2000/svg" viewBox="0 0 20 20">
    <symbol id="download-ico">
        <path
            d="M17.5 12.5V13.5C17.5 14.9001 17.5 15.6002 17.2275 16.135C16.9878 16.6054 16.6054 16.9878 16.135 17.2275C15.6002 17.5 14.9001 17.5 13.5 17.5H6.5C5.09987 17.5 4.3998 17.5 3.86502 17.2275C3.39462 16.9878 3.01217 16.6054 2.77248 16.135C2.5 15.6002 2.5 14.9001 2.5 13.5V12.5M14.1667 8.33333L10 12.5M10 12.5L5.83333 8.33333M10 12.5V2.5"
        />
    </symbol>
    <symbol id="facebook">
        <g clip-path="url(#clip0_43_832)">
            <path
                d="M20 10C20 4.47715 15.5229 0 10 0C4.47715 0 0 4.47715 0 10C0 14.9912 3.65684 19.1283 8.4375 19.8785V12.8906H5.89844V10H8.4375V7.79688C8.4375 5.29063 9.93047 3.90625 12.2146 3.90625C13.3084 3.90625 14.4531 4.10156 14.4531 4.10156V6.5625H13.1922C11.95 6.5625 11.5625 7.3334 11.5625 8.125V10H14.3359L13.8926 12.8906H11.5625V19.8785C16.3432 19.1283 20 14.9912 20 10Z"
            />
        </g>
        <defs>
            <clipPath id="clip0_43_832">
                <rect width="20" height="20" fill="white" />
            </clipPath>
        </defs>
    </symbol>
    <symbol id="instagram">
        <path
            d="M13.498 6.651a1.656 1.656 0 0 0-.95-.949 2.766 2.766 0 0 0-.928-.172c-.527-.024-.685-.03-2.02-.03s-1.493.006-2.02.03a2.766 2.766 0 0 0-.929.172 1.656 1.656 0 0 0-.949.95 2.766 2.766 0 0 0-.172.928c-.024.527-.03.685-.03 2.02s.006 1.493.03 2.02a2.766 2.766 0 0 0 .172.929 1.656 1.656 0 0 0 .95.949 2.766 2.766 0 0 0 .928.172c.527.024.685.03 2.02.03s1.493-.006 2.02-.03a2.766 2.766 0 0 0 .929-.172 1.656 1.656 0 0 0 .949-.95 2.766 2.766 0 0 0 .172-.928c.024-.527.03-.685.03-2.02s-.006-1.493-.03-2.02a2.766 2.766 0 0 0-.172-.929zM9.6 12.168A2.568 2.568 0 1 1 12.168 9.6 2.568 2.568 0 0 1 9.6 12.168zm2.669-4.637a.6.6 0 1 1 .6-.6.6.6 0 0 1-.6.6z"></path>
        <circle cx="9.6" cy="9.6" r="1.667"></circle>
        <path
            d="M9.6 0a9.6 9.6 0 1 0 9.6 9.6A9.6 9.6 0 0 0 9.6 0zm4.97 11.662a3.67 3.67 0 0 1-.233 1.213 2.556 2.556 0 0 1-1.462 1.462 3.67 3.67 0 0 1-1.213.233c-.534.024-.704.03-2.062.03s-1.528-.006-2.062-.03a3.67 3.67 0 0 1-1.213-.233 2.556 2.556 0 0 1-1.462-1.462 3.67 3.67 0 0 1-.233-1.213c-.024-.534-.03-.704-.03-2.062s.006-1.528.03-2.062a3.67 3.67 0 0 1 .233-1.213 2.556 2.556 0 0 1 1.462-1.462 3.67 3.67 0 0 1 1.213-.233c.534-.024.704-.03 2.062-.03s1.528.006 2.062.03a3.67 3.67 0 0 1 1.213.233 2.556 2.556 0 0 1 1.462 1.462 3.67 3.67 0 0 1 .233 1.213c.024.534.03.704.03 2.062s-.006 1.528-.03 2.062z"></path>
    </symbol>
    <symbol id="linkdin">
        <path
            d="M17.5 3.60294V16.3971C17.5 16.6896 17.3838 16.9701 17.177 17.177C16.9701 17.3838 16.6896 17.5 16.3971 17.5H3.60294C3.31042 17.5 3.02989 17.3838 2.82304 17.177C2.6162 16.9701 2.5 16.6896 2.5 16.3971V3.60294C2.5 3.31042 2.6162 3.02989 2.82304 2.82304C3.02989 2.6162 3.31042 2.5 3.60294 2.5H16.3971C16.6896 2.5 16.9701 2.6162 17.177 2.82304C17.3838 3.02989 17.5 3.31042 17.5 3.60294ZM6.91176 8.23529H4.70588V15.2941H6.91176V8.23529ZM7.11029 5.80882C7.11146 5.64197 7.07974 5.47651 7.01696 5.32191C6.95418 5.16731 6.86156 5.02659 6.7444 4.90779C6.62723 4.78898 6.48781 4.69442 6.3341 4.6295C6.18038 4.56458 6.01539 4.53057 5.84853 4.52941H5.80882C5.4695 4.52941 5.14408 4.66421 4.90414 4.90414C4.66421 5.14408 4.52941 5.4695 4.52941 5.80882C4.52941 6.14814 4.66421 6.47357 4.90414 6.7135C5.14408 6.95344 5.4695 7.08824 5.80882 7.08824C5.97569 7.09234 6.14173 7.06353 6.29746 7.00344C6.45319 6.94335 6.59555 6.85317 6.71642 6.73804C6.83728 6.62291 6.93427 6.4851 7.00186 6.33247C7.06944 6.17985 7.10629 6.0154 7.11029 5.84853V5.80882ZM15.2941 11.0059C15.2941 8.88382 13.9441 8.05882 12.6029 8.05882C12.1638 8.03684 11.7266 8.13037 11.3349 8.33009C10.9432 8.52981 10.6107 8.82874 10.3706 9.19706H10.3088V8.23529H8.23529V15.2941H10.4412V11.5397C10.4093 11.1552 10.5304 10.7736 10.7782 10.4779C11.026 10.1822 11.3805 9.99616 11.7647 9.96029H11.8485C12.55 9.96029 13.0706 10.4015 13.0706 11.5132V15.2941H15.2765L15.2941 11.0059Z"
        />
    </symbol>
    <symbol id="git">
        <path
            d="M49.2333 25.7833L30.2167 6.76665C29.6333 6.18331 28.8167 5.83331 28 5.83331C27.1833 5.83331 26.3667 6.18331 25.7833 6.76665L21.7 10.85L26.4833 15.6333C26.95 15.4 27.4167 15.2833 28 15.2833C29.9833 15.2833 31.5 16.8 31.5 18.7833C31.5 19.3666 31.3833 19.8333 31.15 20.3L35.8167 24.9666C36.2833 24.7333 36.75 24.6166 37.3333 24.6166C39.3167 24.6166 40.8333 26.1333 40.8333 28.1166C40.8333 30.1 39.3167 31.6166 37.3333 31.6166C35.35 31.6166 33.8333 30.1 33.8333 28.1166C33.8333 27.5333 33.95 27.0666 34.1833 26.6L29.5167 21.9333C29.4 21.9333 29.2833 22.05 29.1667 22.05V34.1833C30.5667 34.65 31.5 35.9333 31.5 37.45C31.5 39.4333 29.9833 40.95 28 40.95C26.0167 40.95 24.5 39.4333 24.5 37.45C24.5 35.9333 25.4333 34.65 26.8333 34.1833V21.9333C25.4333 21.4666 24.5 20.1833 24.5 18.6666C24.5 18.0833 24.6167 17.6166 24.85 17.15L20.0667 12.3666L6.76668 25.7833C6.18334 26.3666 5.83334 27.1833 5.83334 28C5.83334 28.8166 6.18334 29.6333 6.76668 30.2166L25.7833 49.2333C26.3667 49.8167 27.1833 50.1666 28 50.1666C28.8167 50.1666 29.6333 49.8167 30.2167 49.2333L49.2333 30.2166C49.8167 29.6333 50.1667 28.8166 50.1667 28C50.1667 27.1833 49.8167 26.3666 49.2333 25.7833Z"
            fill="black" />
    </symbol>
    <symbol id="js">
        <path d="M0 56V0H56V56H0Z" fill="white" />
        <path
            d="M36.6147 41.9176C37.6912 43.666 38.861 45.3414 41.339 45.3414C43.4203 45.3414 44.5123 44.3069 44.5123 42.8758C44.5123 41.1631 43.383 40.5549 41.0932 39.5578L39.8378 39.0227C36.215 37.4858 33.8054 35.56 33.8054 31.4923C33.8054 27.7434 36.6754 24.8905 41.1601 24.8905C44.3536 24.8905 46.6481 25.9965 48.3032 28.8929L44.3925 31.3927C43.5323 29.8558 42.6021 29.2507 41.1601 29.2507C39.6885 29.2507 38.7567 30.1794 38.7567 31.3927C38.7567 32.8922 39.6901 33.4989 41.8445 34.4276L43.0998 34.9627C47.3698 36.7811 49.7778 38.6385 49.7778 42.8136C49.7778 47.3122 46.225 49.7778 41.4556 49.7778C36.7905 49.7778 34.1414 47.4367 32.6667 44.5387L36.6147 41.9176ZM18.5921 42.0451C19.3792 43.4545 20.5754 44.5387 22.2958 44.5387C23.9416 44.5387 24.889 43.8885 24.889 41.3607V24.8889H30.0736V42.1571C30.0736 47.3947 27.0356 49.7778 22.5992 49.7778C18.5905 49.7778 15.6972 47.0618 14.5181 44.5387L18.5921 42.0451Z"
        />
    </symbol>
    <symbol id="scss">
        <path
            d="M46.5115 30.282C44.7172 30.2913 43.1632 30.7218 41.8612 31.3646C41.3852 30.4138 40.9022 29.5773 40.8217 28.9555C40.7272 28.2298 40.6175 27.7958 40.7318 26.9313C40.8462 26.0668 41.3467 24.8418 41.3397 24.7496C41.3327 24.6575 41.2277 24.2176 40.1928 24.2095C39.158 24.2025 38.2725 24.409 38.1687 24.682C38.0648 24.955 37.8653 25.5698 37.7417 26.2115C37.5608 27.1495 35.6755 30.4966 34.6057 32.2466C34.2557 31.563 33.9582 30.961 33.8963 30.485C33.8018 29.7593 33.6922 29.3253 33.8065 28.4608C33.9208 27.5963 34.4213 26.3713 34.4143 26.2791C34.4073 26.187 34.3023 25.7471 33.2675 25.739C32.2327 25.732 31.3472 25.9385 31.2433 26.2115C31.1395 26.4845 31.0275 27.1226 30.8163 27.741C30.604 28.3581 28.0992 33.9406 27.4423 35.3885C27.1075 36.1258 26.817 36.7185 26.6117 37.1221L26.6105 37.1198C26.6105 37.1198 26.5977 37.1466 26.5767 37.1921C26.4005 37.5363 26.2967 37.7265 26.2967 37.7265C26.2967 37.7265 26.2978 37.7288 26.3002 37.7335C26.1602 37.9866 26.0108 38.2211 25.9373 38.2211C25.886 38.2211 25.7822 37.548 25.9595 36.624C26.3328 34.6873 27.2277 31.668 27.2195 31.563C27.2148 31.5093 27.3863 30.9831 26.635 30.7078C25.9047 30.4406 25.6445 30.8863 25.578 30.8875C25.5138 30.8886 25.466 31.045 25.466 31.045C25.466 31.045 26.2792 27.6488 23.9143 27.6488C22.435 27.6488 20.3863 29.267 19.3772 30.7335C18.7402 31.0811 17.3763 31.8255 15.9308 32.62C15.3755 32.9256 14.8085 33.2371 14.2707 33.5335C14.2345 33.4926 14.1972 33.453 14.1598 33.4121C11.291 30.352 5.98967 28.1878 6.21367 24.073C6.29533 22.5773 6.81567 18.6386 16.4022 13.8623C24.255 9.94931 30.5422 11.0261 31.6283 13.412C33.18 16.8221 28.2683 23.1583 20.1133 24.073C17.0065 24.4218 15.3697 23.2166 14.9625 22.7686C14.5343 22.2961 14.4702 22.2751 14.3103 22.3638C14.0502 22.5085 14.2147 22.925 14.3103 23.1735C14.5542 23.807 15.5528 24.9305 17.2562 25.4905C18.7553 25.9828 22.4035 26.2523 26.8147 24.5455C31.7567 22.6345 35.6148 17.3168 34.4808 12.873C33.3282 8.35331 25.8335 6.86698 18.7402 9.38698C14.5133 10.8873 9.9435 13.2416 6.657 16.3146C2.74983 19.9686 2.12683 23.1501 2.3835 24.479C3.29583 29.2016 9.80467 32.277 12.411 34.5555C12.2827 34.6266 12.1613 34.6931 12.0517 34.7538C10.745 35.4001 5.78317 37.9971 4.54183 40.74C3.13367 43.8515 4.76583 46.0845 5.84617 46.3855C9.19333 47.3165 12.628 45.6411 14.4748 42.8878C16.3205 40.1356 16.0953 36.5505 15.2483 34.9148C15.2378 34.895 15.2262 34.8751 15.2157 34.8541C15.5528 34.6546 15.897 34.4516 16.2377 34.251C16.9027 33.8601 17.556 33.4961 18.1218 33.1881C17.8045 34.0561 17.5723 35.098 17.4522 36.6018C17.3098 38.3681 18.0343 40.6513 18.9817 41.5496C19.3993 41.9451 19.901 41.9545 20.2183 41.9545C21.3208 41.9545 21.8237 41.0375 22.3778 39.9525C23.0568 38.6225 23.66 37.0731 23.66 37.0731C23.66 37.0731 22.904 41.2568 24.9643 41.2568C25.7157 41.2568 26.4705 40.2826 26.8077 39.7868C26.8088 39.7926 26.8088 39.795 26.8088 39.795C26.8088 39.795 26.8287 39.7623 26.8672 39.6981C26.9453 39.5791 26.9897 39.5033 26.9897 39.5033C26.9897 39.5033 26.9908 39.4951 26.9932 39.4811C27.2953 38.9573 27.965 37.7626 28.9683 35.7921C30.2657 33.2465 31.5093 30.0568 31.5093 30.0568C31.5093 30.0568 31.6248 30.8361 32.004 32.1265C32.2268 32.8848 32.7005 33.7236 33.075 34.5286C32.774 34.9463 32.5897 35.1855 32.5897 35.1855C32.5897 35.1855 32.5908 35.1901 32.5943 35.1983C32.354 35.518 32.0845 35.8621 31.8022 36.1981C30.7778 37.4173 29.5587 38.8103 29.3953 39.2116C29.2028 39.6853 29.2483 40.033 29.6205 40.3141C29.8923 40.5183 30.3753 40.551 30.8805 40.5171C31.801 40.4553 32.4473 40.2266 32.767 40.0878C33.2652 39.9116 33.845 39.6351 34.3887 39.235C35.3932 38.4965 35.9987 37.4406 35.9403 36.0406C35.9077 35.2695 35.6627 34.5053 35.3512 33.7843C35.4422 33.6536 35.5332 33.5206 35.6253 33.3876C37.2085 31.073 38.437 28.5296 38.437 28.5296C38.437 28.5296 38.5525 29.309 38.9317 30.5993C39.123 31.2515 39.5022 31.9643 39.8428 32.662C38.3542 33.8718 37.4313 35.2776 37.1105 36.1993C36.5178 37.905 36.9822 38.6773 37.8525 38.8535C38.2468 38.9328 38.8045 38.752 39.2233 38.5746C39.7448 38.402 40.3713 38.1138 40.957 37.6833C41.9615 36.9448 42.9275 35.9111 42.8692 34.5123C42.8423 33.8753 42.6697 33.243 42.4352 32.6363C43.6975 32.1101 45.3308 31.8185 47.4122 32.0611C51.877 32.5826 52.752 35.3698 52.5852 36.5365C52.4172 37.7031 51.4815 38.3448 51.1677 38.5385C50.855 38.7321 50.7593 38.7998 50.785 38.9433C50.8235 39.1521 50.9682 39.1451 51.2353 39.0996C51.6028 39.0378 53.5792 38.1511 53.6643 35.9975C53.7705 33.2605 51.1513 30.2575 46.5115 30.282ZM12.0983 41.8833C10.619 43.4968 8.554 44.1058 7.66733 43.5925C6.71067 43.0383 7.08983 40.663 8.904 38.9503C10.01 37.9073 11.438 36.946 12.3853 36.3545C12.6012 36.225 12.9173 36.0348 13.3023 35.8038C13.3665 35.7676 13.4027 35.7478 13.4027 35.7478L13.4015 35.7455C13.4762 35.7011 13.552 35.6556 13.6302 35.6078C14.2917 38.045 13.6512 40.1905 12.0983 41.8833ZM22.8725 34.5601C22.358 35.8155 21.28 39.0285 20.6232 38.8558C20.0597 38.7076 19.7167 36.2658 20.5112 33.8625C20.9102 32.6526 21.7642 31.2071 22.2658 30.646C23.0732 29.743 23.9622 29.4478 24.178 29.8141C24.4522 30.2808 23.1957 33.7726 22.8725 34.5601ZM31.773 38.8068C31.5548 38.9211 31.3542 38.9923 31.262 38.9375C31.1932 38.8966 31.3518 38.7461 31.3518 38.7461C31.3518 38.7461 32.4648 37.548 32.9035 37.0031C33.159 36.6858 33.4542 36.309 33.7762 35.889C33.7785 35.931 33.7797 35.973 33.7797 36.0138C33.7773 37.4488 32.3913 38.4171 31.773 38.8068ZM38.6295 37.2435C38.4662 37.128 38.4942 36.7535 39.0297 35.5856C39.2397 35.1271 39.7203 34.356 40.5533 33.6186C40.6502 33.922 40.7085 34.2125 40.7073 34.4831C40.6968 36.2891 39.4088 36.9635 38.6295 37.2435Z"
        />
    </symbol>
    <symbol id="react">
        <svg xmlns="http://www.w3.org/2000/svg" data-name="Layer 1" viewBox="0 0 22 22">
            <path
                d="M11.103,10.43793a1.78593,1.78593,0,1,0,2.43957.65362A1.786,1.786,0,0,0,11.103,10.43793Zm8.0047,1.93768q-.17587-.201-.37116-.40308.13641-.14337.264-.28649c1.60583-1.80427,2.28357-3.61371,1.65558-4.70154-.60217-1.043-2.39343-1.35382-4.63593-.91779q-.33132.06482-.659.14624-.06272-.21624-.13343-.43C14.467,3.49042,13.2381,1.99921,11.98206,2,10.77765,2.00055,9.61359,3.39709,8.871,5.5575q-.10959.31969-.20276.64471-.21908-.05375-.44-.0993c-2.366-.48578-4.27167-.16584-4.89844.9226-.601,1.04376.02753,2.74982,1.52851,4.47211q.22329.25562.45922.49976c-.18542.191-.361.38189-.52465.57171-1.4646,1.698-2.05719,3.37616-1.45716,4.41541.61969,1.07348,2.49854,1.42437,4.7854.97436q.278-.05511.55292-.124.10071.35156.22095.697c.73932,2.11706,1.89685,3.46863,3.097,3.4682,1.23944-.00073,2.48194-1.45288,3.23474-3.65875.05945-.17432.11573-.35535.16907-.54175q.35514.08835.71485.1568c2.20336.41687,3.95251.089,4.55145-.951C21.28058,15.93109,20.64288,14.12933,19.10767,12.37561ZM4.07019,7.45184c.38586-.67,1.94324-.93139,3.98608-.512q.19584.04027.39838.09a20.464,20.464,0,0,0-.42126,2.67767,20.88659,20.88659,0,0,0-2.10389,1.6936q-.21945-.22695-.42718-.4649l.00006.00006C4.21631,9.46057,3.708,8.08081,4.07019,7.45184Zm3.88666,5.72809c-.51056-.3866-.98505-.78265-1.41571-1.181.43036-.39587.90515-.79059,1.41467-1.17615q-.02746.58915-.02722,1.1792Q7.929,12.59117,7.95685,13.17993Zm-.00061,3.94061a7.23675,7.23675,0,0,1-2.63971.09314,1.766,1.766,0,0,1-1.241-.65631c-.36407-.63067.11176-1.978,1.36432-3.43023q.23621-.273.48791-.53174a20.49026,20.49026,0,0,0,2.10712,1.70007,20.80226,20.80226,0,0,0,.42621,2.712Q8.21011,17.07023,7.95624,17.12054Zm7.10113-8.03936q-.50309-.317-1.01861-.61365-.5073-.292-1.0268-.56207c.593-.24933,1.17591-.46228,1.73865-.63581A18.21775,18.21775,0,0,1,15.05737,9.08118ZM9.679,5.83521c.63623-1.85114,1.57763-2.98053,2.30352-2.98084.77308-.00037,1.77753,1.21826,2.43433,3.19763q.064.19355.121.38928a20.478,20.478,0,0,0-2.52716.9712,20.06145,20.06145,0,0,0-2.519-.98194Q9.578,6.13062,9.679,5.83521ZM9.27863,7.259a18.30717,18.30717,0,0,1,1.72967.642Q9.95746,8.4433,8.96094,9.0824C9.0412,8.4444,9.148,7.83313,9.27863,7.259ZM8.9624,14.91968q.49695.31813,1.00843.61273.52174.30039,1.05737.57556a18.19577,18.19577,0,0,1-1.74445.66492C9.15161,16.1908,9.04364,15.56879,8.9624,14.91968Zm5.45569,3.14551A7.23556,7.23556,0,0,1,13.18,20.39844l-.00006.00006a1.76585,1.76585,0,0,1-1.18841.747c-.72821.00042-1.65766-1.085-2.28992-2.89545q-.11169-.32108-.20551-.648a20.10863,20.10863,0,0,0,2.52918-1.0097,20.79976,20.79976,0,0,0,2.54736.97851Q14.50141,17.81983,14.41809,18.06519Zm.36224-1.32422c-.56921-.176-1.16058-.39252-1.76214-.64551q.50867-.2677,1.02472-.56543.52955-.30579,1.0321-.62689A18.1524,18.1524,0,0,1,14.78033,16.741Zm.44629-4.74268q.00111.91095-.05688,1.82044c-.49268.33343-1.01282.659-1.554.97143-.53894.31116-1.07293.59711-1.59674.8559q-.82682-.39624-1.62176-.854-.79047-.455-1.54468-.969-.06894-.90921-.06946-1.82172l.00012.00019q-.00063-.91187.06794-1.82184c.49255-.33637,1.00891-.66168,1.54278-.96991.53632-.30969,1.077-.59442,1.61469-.85248q.81664.39688,1.60382.85065.78992.454,1.549.95868.06519.91443.06524,1.83166Zm.95673-5.09283c1.92133-.37372,3.37-.12232,3.73291.50622.3866.66962-.16748,2.1485-1.55383,3.70636l-.00006.00006q-.1149.12891-.23841.25891A20.06118,20.06118,0,0,0,15.98,9.68915a20.04054,20.04054,0,0,0-.40546-2.64893Q15.88486,6.96387,16.18335,6.90546Zm-.12988,3.8847A18.16447,18.16447,0,0,1,17.51483,11.978a18.11912,18.11912,0,0,1-1.45672,1.20831q.02325-.59391.02288-1.18842Q16.08072,11.39389,16.05347,10.79016Zm3.8681,5.78876c-.36346.63116-1.76788.89435-3.65222.53784q-.32391-.06115-.66474-.14557a20.069,20.069,0,0,0,.38746-2.68176,19.93914,19.93914,0,0,0,2.13708-1.71588q.17643.18329.33563.36487v-.00007a7.23437,7.23437,0,0,1,1.40308,2.23792A1.76563,1.76563,0,0,1,19.92157,16.57892Z"></path>
        </svg>
    </symbol>
    <symbol id="css">
        <svg xmlns="http://www.w3.org/2000/svg" viewBox="0 0 24 24">
            <path
                d="M.98 14.471 0 19.232l9.635 4.018L20.8 19.232 24 .751V.75H3.63l-.815 4.118h16.67l-.525 2.647H2.275l-.8 4.118h16.67l-.94 4.877-6.705 2.229-5.82-2.229.4-2.039z"></path>
        </svg>
    </symbol>
    <symbol id="figma">
        <svg xmlns="http://www.w3.org/2000/svg" fill-rule="evenodd" stroke-linejoin="round"
            stroke-miterlimit="2" clip-rule="evenodd" viewBox="0 0 24 24">
            <g transform="translate(-40 -40)">
                <rect width="24" height="24" x="40" y="40" fill="none"></rect>
                <path
                    d="M144.49,381.147L151.51,381.147C153.93,381.147 155.9,383.062 155.9,385.361C155.9,386.705 155.226,387.919 154.182,388.694C155.226,389.47 155.9,390.683 155.9,392.028C155.9,394.326 153.93,396.241 151.51,396.241C150.524,396.241 149.613,395.924 148.88,395.392L148.88,398.694C148.88,400.993 146.911,402.908 144.49,402.908C142.07,402.908 140.1,400.993 140.1,398.694C140.1,397.35 140.774,396.137 141.818,395.361C140.774,394.585 140.1,393.372 140.1,392.028C140.1,390.683 140.774,389.47 141.818,388.694C140.774,387.919 140.1,386.705 140.1,385.361C140.1,383.062 142.07,381.147 144.49,381.147ZM147.12,396.241L144.49,396.241C143.06,396.241 141.86,397.336 141.86,398.694C141.86,400.053 143.06,401.147 144.49,401.147C145.921,401.147 147.12,400.053 147.12,398.694L147.12,396.241ZM148.88,392.028C148.88,390.669 150.079,389.574 151.51,389.574C152.94,389.574 154.14,390.669 154.14,392.028C154.14,393.386 152.94,394.481 151.51,394.481C150.079,394.481 148.88,393.386 148.88,392.028ZM144.457,389.575C143.041,389.591 141.86,390.68 141.86,392.028C141.86,393.386 143.06,394.481 144.49,394.481L147.12,394.481L147.12,389.574L144.49,389.574L144.457,389.575ZM147.12,387.814L147.12,382.908L144.49,382.908C143.06,382.908 141.86,384.002 141.86,385.361C141.86,386.72 143.06,387.814 144.49,387.814L147.12,387.814ZM148.88,387.814L151.51,387.814C152.94,387.814 154.14,386.72 154.14,385.361C154.14,384.002 152.94,382.908 151.51,382.908L148.88,382.908L148.88,387.814Z"
                    transform="translate(-96 -340)"></path>
            </g>
        </svg>
    </symbol>
    <symbol id="html">
        <svg xmlns="http://www.w3.org/2000/svg" enable-background="new 0 0 24 24"
            viewBox="0 0 24 24">
            <path
                d="M20.387,21.203L22.25,0H1.751H1.75l1.863,21.203L11.973,24L20.387,21.203z M6.702,17.448l-0.32-4.061h2.546l0.187,2.041l2.856,0.777l2.866-0.777l0.32-3.333H6.248l-0.683-7.8h12.871l-0.235,2.555H8.391l0.219,2.647h9.374l-0.727,7.95l-5.226,1.447v0.016h-0.059L6.702,17.448z"></path>
        </svg>
    </symbol>
    <symbol id="bs">
        <svg xmlns="http://www.w3.org/2000/svg" viewBox="0 0 576 512">
            <path
                d="M333.5,201.4c0-22.1-15.6-34.3-43-34.3h-50.4v71.2h42.5C315.4,238.2,333.5,225,333.5,201.4z M517,188.6 c-9.5-30.9-10.9-68.8-9.8-98.1c1.1-30.5-22.7-58.5-54.7-58.5H123.7c-32.1,0-55.8,28.1-54.7,58.5c1,29.3-0.3,67.2-9.8,98.1 c-9.6,31-25.7,50.6-52.2,53.1v28.5c26.4,2.5,42.6,22.1,52.2,53.1c9.5,30.9,10.9,68.8,9.8,98.1c-1.1,30.5,22.7,58.5,54.7,58.5h328.7 c32.1,0,55.8-28.1,54.7-58.5c-1-29.3,0.3-67.2,9.8-98.1c9.6-31,25.7-50.6,52.1-53.1v-28.5C542.7,239.2,526.5,219.6,517,188.6z M300.2,375.1h-97.9V136.8h97.4c43.3,0,71.7,23.4,71.7,59.4c0,25.3-19.1,47.9-43.5,51.8v1.3c33.2,3.6,55.5,26.6,55.5,58.3 C383.4,349.7,352.1,375.1,300.2,375.1z M290.2,266.4h-50.1v78.4h52.3c34.2,0,52.3-13.7,52.3-39.5 C344.7,279.6,326.1,266.4,290.2,266.4z" />
        </svg>
    </symbol>
    <symbol id="link">
        <svg xmlns="http://www.w3.org/2000/svg" width="20" height="20" viewBox="0 0 20 20"
            fill="none">
            <path d="M10.8333 9.16658L17.6667 2.33325" stroke-width="2"
                stroke-linecap="round" stroke-linejoin="round" />
            <path d="M18.3333 5.66675V1.66675H14.3333" stroke-width="2"
                stroke-linecap="round" stroke-linejoin="round" />
            <path
                d="M9.16667 1.66675H7.5C3.33333 1.66675 1.66667 3.33341 1.66667 7.50008V12.5001C1.66667 16.6667 3.33333 18.3334 7.5 18.3334H12.5C16.6667 18.3334 18.3333 16.6667 18.3333 12.5001V10.8334"
                stroke-width="2" stroke-linecap="round" stroke-linejoin="round" />
        </svg>
    </symbol>
    <symbol id="mongo">
        <svg xmlns="http://www.w3.org/2000/svg" 
            viewBox="0 0 24 24" role="img">
            <path
                d="M17.18 9.518c-1.263-5.56-4.242-7.387-4.562-8.086C12.266.939 11.885 0 11.885 0c-.002.019-.004.031-.005.049v.013h-.001c-.002.015-.003.025-.004.039v.015h-.002c0 .01-.002.018-.002.026v.026h-.003c-.001.008-.001.018-.003.025v.021h-.002c0 .007 0 .015-.002.021v.02h-.002c0 .01-.001.022-.002.032v.002c-.003.017-.006.034-.009.05v.008h-.002c-.001.004-.003.008-.003.012v.017h-.003v.022h-.005v.018h-.005v.021h-.004v.019h-.004v.017h-.006v.014h-.004v.018h-.004v.014h-.005v.013H11.8v.015h-.004c-.001.001-.001.003-.001.004v.01h-.003c-.001.002-.001.004-.001.006v.006h-.002c-.001.003-.002.008-.002.01-.003.007-.007.014-.01.021v.002c-.002.002-.004.005-.005.007v.008h-.004v.008h-.005v.008h-.003v.01h-.006v.014h-.004v.004h-.004v.008h-.004v.011h-.004v.008h-.006v.011h-.004v.008h-.005v.008h-.003v.01h-.005v.008h-.004v.006h-.004v.008h-.006V.76h-.004v.006h-.005v.008h-.004v.011h-.005v.004h-.003v.008h-.006v.004h-.004v.01h-.004v.004h-.004v.008h-.005v.006h-.003l-.002.004v.004h-.002c-.001.002-.002.002-.002.004v.001h-.001c-.001.003-.002.005-.004.007v.003h-.001c-.005.006-.008.012-.012.018v.001c-.002.002-.007.006-.009.01v.002h-.001c-.001.001-.003.002-.003.003v.003h-.002l-.003.003v.001h-.001c0 .001-.002.002-.003.004v.004h-.003l-.002.002v.002h-.002c0 .002-.002.002-.002.003v.003h-.004c0 .001-.001.002-.002.003V.92h-.003v.004h-.004V.93h-.004v.008h-.005V.93h-.005v.004h-.004V.94h-.005v.008h-.005v.004h-.004v.006h-.004v.004h-.004V.97h-.006v.004h-.004V.98h-.005v.004h-.004v.005h-.005v.01h-.002v.004h-.006v.005h-.004v.002h-.004v.004h-.005v.01h-.004v.004h-.005v.004h-.004v.006h-.005v.004h-.005v.004h-.004v.004h-.004v.01h-.004v.005h-.006v.004h-.004v.004h-.005v.006h-.004v.004h-.005v.007h-.004v.004h-.006V1.1h-.002v.004h-.004v.004h-.005v.004h-.004v.006h-.005v.004h-.003c-.001.001-.001.002-.001.002v.002h-.002l-.004.004s-.002.002-.004.003v.006h-.004v.005h-.004v.004h-.004v.004h-.003l-.003.003v.003h-.002l-.002.002v.003h-.002c-.005.006-.007.01-.014.016-.002.002-.008.007-.012.01-.012.008-.027.021-.039.032-.008.005-.016.012-.022.017v.001h-.001c-.016.013-.031.025-.049.039v.001c-.024.02-.047.039-.074.062V1.34h-.002c-.057.047-.117.1-.186.159V1.5h-.001c-.169.148-.37.338-.595.568l-.015.015-.004.004C9 3.494 6.857 6.426 6.631 11.164c-.02.392-.016.773.006 1.144v.009c.109 1.867.695 3.461 1.428 4.756v.001c.292.516.607.985.926 1.405v.001c1.102 1.455 2.227 2.317 2.514 2.526.441 1.023.4 2.779.4 2.779l.644.215s-.131-1.701.053-2.522c.057-.257.192-.476.349-.662.106-.075.42-.301.797-.645.018-.019.028-.036.044-.054 1.521-1.418 4.362-4.91 3.388-10.599z" />
        </svg>
    </symbol>
</svg>