<svg width="436" height="534" viewBox="0 0 436 534" fill="none" xmlns="http://www.w3.org/2000/svg">
<path d="M66.1933 488.403H340.728C341.881 477.912 299.829 254.825 250.432 183.108C244.824 174.969 196.818 169.047 179.195 189.292C85.8418 296.5 63.9375 485.833 66.1933 488.403Z" fill="black"/>
<path d="M256.943 201.622C264.735 221.809 294.131 292.584 310.108 343.378C320.829 377.465 324.911 406.073 327.257 413.59C327.257 413.59 246.196 387.552 227.944 387.507C199.836 387.437 154.746 446.145 165.807 453.496C183.193 465.063 266.075 504.399 332.262 516.748C368.239 523.464 436.029 477.733 430.671 441.377C423.154 390.353 330.948 255.857 295.868 217.72C277.655 197.924 247.445 177.02 256.943 201.622Z" fill="#FF9581"/>
<path d="M435.612 452.163C433.914 488.916 387.939 519.856 361.273 521.49C315.286 524.278 177.33 484.103 177.33 484.103L230.956 380.791C230.956 380.791 324.828 412.654 327.212 413.551V413.513C326.385 410.777 303.251 323.845 292.914 295.039C292.362 293.449 291.722 291.822 291.119 290.111C288.146 282.132 284.063 271.596 279.552 260.215L279.507 260.132C277.008 253.832 274.367 247.244 271.772 240.746V240.707C260.435 212.542 249.387 185.735 249.387 185.735C265.19 188.331 280.795 196.636 306.416 223.526C331.986 250.384 438.419 391.532 435.612 452.163Z" fill="black"/>
<path d="M213.083 461.75C216.909 454.438 220.799 447.157 224.637 439.852C228.406 432.7 232.219 425.574 236.064 418.46C240.037 411.103 244.209 403.759 247.42 396.03C247.477 395.883 247.279 395.761 247.183 395.889C242.357 402.253 238.384 409.27 234.417 416.185C230.309 423.35 226.304 430.579 222.337 437.827C218.447 444.927 214.704 452.098 211.013 459.295C207.219 466.703 203.387 474.381 200.644 482.251C200.535 482.565 200.971 482.872 201.176 482.565C205.611 475.983 209.404 468.773 213.083 461.75Z" fill="#2B454E"/>
<path d="M355.922 428.797L327.257 413.596L327.212 413.558V413.519C326.385 410.783 303.251 323.851 292.914 295.045C292.363 293.456 291.722 291.828 291.119 290.117C288.146 282.138 284.064 271.603 279.552 260.221L355.922 428.797Z" fill="#1C1C1C"/>
<path d="M379.653 441.409C371.694 435.462 363.113 430.143 354.468 425.253C350.148 422.805 345.739 420.556 341.208 418.531C336.389 416.378 331.294 414.82 326.507 412.654C326.142 412.488 325.873 413.052 326.238 413.218C330.711 415.243 334.96 418.063 339.279 420.415C343.772 422.863 348.283 425.273 352.833 427.612C361.767 432.207 370.54 437.083 379.422 441.775C379.634 441.89 379.852 441.557 379.653 441.409Z" fill="#1C1C1C"/>
<path d="M358.78 419.153C351.584 419.249 308.147 407.649 301.822 413.609C263.268 449.952 251.079 442.633 242.87 447.369C179.342 483.917 94.506 526.854 64.2258 527.123C18.3023 527.495 0.0124531 488.954 7.65781 452.541C22.7499 380.56 119.826 240.208 163.75 202.91C187.039 183.165 185.199 212.946 175.567 245.322C169.915 264.304 160.033 292.527 149.952 320.224C141.025 344.897 117.365 407.944 116.955 409.424V409.463C116.917 409.546 116.878 409.591 116.885 409.636C116.853 409.802 117.019 409.835 117.391 409.732C119.41 409.36 173.734 383.758 228.367 369.692C247.618 364.738 287.71 357.676 302.084 364.091C310.633 367.904 310.774 373.005 310.774 373.005C310.774 373.005 317.625 372.383 324.854 378.33C329.647 382.278 331.134 387.86 331.134 387.86C331.134 387.86 338.632 388.911 342.535 393.256C347.187 398.44 347.598 403.926 347.598 403.926C357.723 406.63 358.78 419.153 358.78 419.153Z" fill="white"/>
<path d="M294.612 371.486C288.819 371.569 283.166 372.409 277.476 373.408C277.091 373.479 277.104 374.075 277.514 374.03C283.102 373.415 288.761 373.287 294.375 373.101C299.957 372.915 305.628 372.793 311.21 372.909C311.242 372.909 311.249 372.851 311.216 372.845C305.647 371.928 300.277 371.403 294.612 371.486Z" fill="#1A2E35"/>
<path d="M330.974 387.527C321.028 384.797 313.1 383.284 300.61 384.848C300.207 384.899 300.239 385.495 300.636 385.469C312.505 384.733 320.246 385.937 330.955 387.738C331.076 387.764 331.083 387.559 330.974 387.527Z" fill="#1A2E35"/>
<path d="M347.489 403.593C337.517 399.491 329.84 398.209 318.772 398.209C318.381 398.209 318.253 398.786 318.657 398.825C329.276 399.837 337.043 401.362 347.341 404.041C347.598 404.105 347.732 403.695 347.489 403.593Z" fill="#1A2E35"/>
<path d="M225.714 370.326C220.946 370.948 216.178 372.351 211.513 373.498C206.54 374.722 201.579 376.075 196.709 377.683C186.955 380.9 177.49 384.758 168.153 389.013C167.794 389.18 167.986 389.731 168.37 389.597C177.881 386.264 187.487 383.143 197.1 380.118C201.829 378.632 206.527 377.049 211.237 375.511C216.069 373.928 221.1 372.729 225.848 370.929C226.169 370.807 226.073 370.275 225.714 370.326Z" fill="#1A2E35"/>
<path d="M187.718 380.624C197.773 377.222 202.317 377.202 202.317 377.202L259.474 473.721C259.474 473.721 102.042 530.398 69.7243 533.711C37.3998 537.024 0.627709 511.57 0.00608269 470.991C-0.865476 413.955 92.1413 276.986 138.93 224.02C160.373 199.744 185.372 182.114 191.749 186.094C199.279 190.791 185.603 221.315 178.394 244.085C165.089 286.118 117.404 409.732 117.404 409.732C117.404 409.732 175.74 384.681 187.718 380.624Z" fill="black"/>
<path d="M201.804 377.125C192.934 377.645 154.592 391 135.79 399.068C117.051 407.111 99.024 416.653 82.1119 428.073C72.544 434.533 63.4632 441.563 54.4912 448.824C54.1836 449.074 54.5169 449.574 54.8501 449.337C71.3841 437.513 89.046 426.964 106.919 417.307C124.703 407.7 142.813 398.581 161.661 391.231C172.395 387.046 190.852 380.778 201.336 378.029C204.303 377.247 202.079 377.106 201.804 377.125Z" fill="#1C1C1C"/>
<path d="M164.058 292.725C161.661 296.596 159.232 300.441 157.181 304.517C157.085 304.709 156.995 304.901 156.899 305.094C159.943 295.833 162.834 286.547 165.602 277.197C165.775 276.621 164.82 276.313 164.602 276.871C151.074 311.131 138.52 345.807 126.343 380.573C122.934 390.295 119.948 400.119 116.852 409.937C116.743 410.277 117.301 410.45 117.442 410.129C121.159 401.709 124.902 393.345 128.304 384.777C131.707 376.215 134.867 367.558 138.065 358.919C143.653 343.814 148.978 328.632 154.112 313.374C155.72 310.701 157.341 308.035 158.86 305.318C161.071 301.351 162.891 297.198 164.737 293.052C164.936 292.597 164.308 292.322 164.058 292.725Z" fill="#1C1C1C"/>
<path d="M221.17 452.701C216.979 445.588 212.852 438.442 208.68 431.322C204.591 424.344 200.561 417.339 196.549 410.322C192.402 403.061 188.372 395.64 183.507 388.828C183.418 388.699 183.2 388.808 183.264 388.956C186.116 396.415 189.974 403.497 193.755 410.514C197.67 417.788 201.695 425.004 205.751 432.2C209.725 439.25 213.833 446.216 217.998 453.156C222.279 460.289 226.778 467.601 232.014 474.086C232.225 474.343 232.712 474.144 232.565 473.798C229.316 466.556 225.195 459.533 221.17 452.701Z" fill="#1C1C1C"/>
<path d="M261.749 473.926C257.007 464.576 249.631 455.393 244.17 446.498C243.965 446.158 243.459 446.511 243.658 446.85C248.618 455.194 253.162 464.185 257.904 472.67C236.282 481.597 213.326 489.557 191.275 497.369C168.646 505.392 145.87 512.993 122.78 519.645C109.874 523.362 96.9476 527.393 83.9639 530.802C83.1565 531.013 83.3744 531.68 84.2011 531.52C107.56 527.123 130.496 520.375 153.112 513.198C176.176 505.879 198.939 497.702 221.593 489.236C234.34 484.475 262.134 474.683 261.749 473.926Z" fill="#1C1C1C"/>
<path d="M224.259 370.39C194.53 378.003 160.321 390.532 144.992 396.53C144.589 396.671 144.223 396.812 143.858 396.947C130.355 402.253 121.992 406.188 119.986 406.521C119.82 406.444 119.692 406.329 119.563 406.252V406.214C118.16 405.201 116.769 404.432 115.385 403.913C111.578 402.548 74.9985 397.979 75.9213 386.648C76.8121 375.44 91.7183 376.138 93.91 376.292C91.5389 375.773 71.6853 371.121 78.1515 361.207C82.7208 354.176 102.382 355.208 104.362 355.285C102.356 354.625 84.1178 348.678 90.3918 338.559C94.8841 331.317 116.833 332.259 119.365 332.689C117.314 331.907 101.056 329.183 108.643 320.461C113.911 314.386 155.24 320.564 173.613 329.734C200.932 343.372 224.259 370.39 224.259 370.39Z" fill="white"/>
<path d="M144.992 396.531C144.589 396.672 144.223 396.813 143.858 396.947C137.514 392.019 113.507 379.305 94.647 376.889C93.4806 376.741 93.4037 376.068 94.6406 376.126C117.929 377.183 138.866 390.898 144.992 396.531Z" fill="#1A2E35"/>
<path d="M105.259 356.035C131.291 361.2 143.057 366.949 165.442 381.169C165.756 381.368 166.108 380.906 165.807 380.676C144.941 365.058 131.957 357.323 105.484 355.375C104.285 355.285 104.068 355.798 105.259 356.035Z" fill="#1A2E35"/>
<path d="M120.166 333.227C145.14 339.866 158.303 345.621 178.419 361.899C178.893 362.283 179.476 361.7 179.041 361.271C160.084 342.885 143.704 335.598 120.403 332.535C118.813 332.33 118.596 332.811 120.166 333.227Z" fill="#1A2E35"/>
<path d="M245.215 233.075C230.424 238.394 201.695 218.124 189.256 200.475C188.41 199.257 188.846 185.434 188.576 168.605C188.378 158.396 187.91 147.028 186.737 136.691L253.373 145.086C253.373 145.086 249.457 167.484 251.611 185.498C251.809 187.004 252.117 188.388 252.54 189.689C252.585 189.881 252.668 190.112 252.713 190.381C254.949 198.289 259.512 227.922 245.215 233.075Z" fill="white" stroke="black" stroke-width="0.640852" stroke-miterlimit="10"/>
<path d="M252.738 190.375C252.867 190.804 252.995 191.272 253.078 191.83C213.185 190.138 198.01 172.598 188.192 155.769C187.891 149.354 187.468 142.849 186.737 136.691L253.379 145.073C253.379 145.073 249.445 167.49 251.623 185.498C251.796 186.998 252.136 188.363 252.565 189.689C252.61 189.856 252.649 190.118 252.738 190.375Z" fill="black" stroke="black" stroke-width="0.640852" stroke-miterlimit="10"/>
<path d="M159.424 66.793C155.81 90.716 177.644 155.077 196.1 167.426C222.856 185.325 261.807 181.678 275.79 150.623C289.344 120.522 259.403 37.1536 239.242 26.4322C209.545 10.6352 164.763 31.45 159.424 66.793Z" fill="white" stroke="black" stroke-width="1.2817" stroke-miterlimit="10"/>
<path d="M221.042 95.7404C220.952 95.5866 220.773 96.0609 220.837 96.2339C222.42 100.528 223.516 105.718 220.068 108.468C219.959 108.551 220.049 108.769 220.183 108.698C224.753 106.43 223.234 99.5535 221.042 95.7404Z" fill="black"/>
<path d="M215.646 92.5042C208.488 94.305 212.615 108.493 219.248 106.827C225.778 105.18 221.651 90.9918 215.646 92.5042Z" fill="black"/>
<path d="M247.778 87.6914C247.766 87.512 248.182 87.8003 248.227 87.9798C249.368 92.4145 251.419 97.3042 255.821 97.6054C255.956 97.6118 256.013 97.8425 255.86 97.8617C250.803 98.5923 248.144 92.0748 247.778 87.6914Z" fill="black"/>
<path d="M250.367 81.9558C257.282 79.3603 261.96 93.3821 255.552 95.7789C249.252 98.1501 244.574 84.1282 250.367 81.9558Z" fill="black"/>
<path d="M208.161 87.6401C209.949 86.5891 211.429 85.3267 213.096 84.1027C214.973 82.7248 216.608 81.8212 217.434 79.5398C217.876 78.3158 217.043 76.5919 215.896 76.0471C213.217 74.7847 210.5 75.8997 208.174 77.4634C205.649 79.1617 204.137 81.1163 203.252 84.0258C202.393 86.8455 205.796 89.0244 208.161 87.6401Z" fill="black"/>
<path d="M253.777 73.2144C251.713 73.4644 249.771 73.3554 247.714 73.3939C245.388 73.4387 243.536 73.7143 241.492 72.3941C240.396 71.6892 240.018 69.8115 240.601 68.6836C241.959 66.0561 244.798 65.2935 247.599 65.1269C250.637 64.9475 253.027 65.5819 255.488 67.3635C257.878 69.0874 256.494 72.8812 253.777 73.2144Z" fill="black"/>
<path d="M231.212 136.486C232.564 137.21 234.026 138.319 235.66 137.992C237.223 137.678 238.819 136.467 240.062 135.512C240.184 135.416 240.37 135.524 240.319 135.685C239.672 137.703 237.576 139.459 235.435 139.696C233.346 139.927 231.86 138.492 230.847 136.813C230.706 136.575 231.014 136.383 231.212 136.486Z" fill="black"/>
<path d="M232.001 121.983C235.57 125.085 239.793 126.117 243.927 125.732C245.773 125.572 247.631 125.098 249.381 124.412C249.733 124.303 250.073 124.162 250.374 123.996C250.682 123.861 250.963 123.739 251.297 123.566C251.79 123.342 251.95 122.836 251.893 122.323L251.88 122.291C251.829 122.131 251.79 122.003 251.707 121.855C251.707 121.855 251.707 121.855 251.7 121.823L251.579 121.439C250.688 118.029 248.861 112.979 248.861 112.979C250.278 113.236 257.41 114.242 256.795 112.499C251.662 98.1181 245.958 82.1224 237.813 68.8953C237.57 68.4467 236.865 68.7735 237.044 69.2413C241.428 83.2568 248.253 96.407 252.88 110.422C250.643 110.243 246.952 109.782 245.189 110.333C244.747 110.608 248.894 120.029 249.169 121.592C249.169 121.592 249.188 121.657 249.188 121.766C243.715 124.149 238.928 123.675 232.295 121.464C231.898 121.311 231.635 121.708 232.001 121.983Z" fill="black"/>
<path opacity="0.2" d="M166.448 112.133C170.223 109.044 174.99 93.2154 177.208 86.6787C179.508 79.8857 172.683 52.3483 170.453 44.1582C164.82 50.5155 160.853 58.289 159.456 67.043C157.854 77.0083 160.956 94.6701 166.448 112.133Z" fill="black"/>
<path d="M229.45 52.0726C226.252 58.9682 219.773 63.9027 212.173 64.8128C204.771 65.6971 196.344 62.8325 191.832 56.6996C191.698 56.5201 191.416 56.7252 191.55 56.911C196.376 63.4605 204.047 67.7927 212.365 66.5943C220.171 65.4664 227.246 59.6924 229.95 52.2969C230.065 51.9637 229.597 51.7522 229.45 52.0726Z" fill="#1A2E35"/>
<path d="M192.505 6.09172C180.31 9.89197 170.998 19.9213 168.915 29.5725C167.646 35.4363 168.723 40.7105 171.056 45.722C171.152 45.9271 171.575 45.754 171.498 45.5425C168.403 37.4358 169.787 26.7912 177.022 18.4281C183.975 10.3982 194.831 5.406 205.732 6.3096C211.423 6.77743 216.518 8.84097 219.792 12.199C220.158 12.5771 220.997 12.0196 220.67 11.6223C215.127 4.91896 203.54 2.65675 192.505 6.09172Z" fill="#1A2E35"/>
<path d="M271.426 12.2119C267.754 6.72624 262.044 2.75937 255.712 0.977803C246.843 -1.52152 238.525 1.61865 230.328 4.89981C230.104 4.98953 230.245 5.3356 230.463 5.24588C237.454 2.47099 244.702 0.0677929 252.29 1.54816C258.474 2.75937 264.312 6.05975 268.318 10.9559C276.636 21.1198 276.059 36.8527 266.831 46.2476C261.608 51.5666 254.11 54.5786 246.663 54.3351C246.369 54.3287 246.285 54.7773 246.586 54.7965C260.307 55.604 273.336 45.7092 275.521 31.995C276.604 25.2276 275.265 17.9347 271.426 12.2119Z" fill="#1A2E35"/>
<path d="M159.277 80.4881C159.277 80.4881 141.391 61.8137 147.549 46.3308C151.036 37.5575 169.646 33.3215 169.646 33.3215C169.646 33.3215 172.575 21.1068 186.789 13.3333C201.15 5.48288 221.933 9.28954 221.933 9.28954C221.933 9.28954 234.154 -3.17503 250.015 0.772615C272.131 6.27753 277.943 35.9554 261.409 50.695C249.797 61.0447 228.162 54.2901 228.162 54.2901C226.47 55.0271 211.538 70.9587 193.402 58.7376C193.402 58.7376 185.116 71.6893 173.247 67.6006C173.254 67.607 171.043 79.0014 159.277 80.4881Z" fill="black"/>
<path d="M252.521 188.972L238.345 228.185L188.743 181.377L175.804 197.495C175.804 197.495 225.458 272.974 225.618 269.469L240.197 235.741L263.934 257.914L259.878 200.129L252.521 188.972Z" fill="#EDEFEF"/>
<path d="M263.55 229.236C262.557 219.72 261.826 210.1 260.397 200.641C260.346 200.308 259.814 200.174 259.743 200.577C258.18 209.863 262.159 246.244 262.454 254.992C262.422 254.96 262.383 254.928 262.351 254.896C261.358 253.935 240.39 235.427 240.197 235.735C236.961 241.124 226.259 265.688 225.547 267.912C217.697 255.921 187.679 212.388 178.496 201.116C178.233 200.789 177.727 201.084 177.939 201.468C184.956 214.176 224.708 272.827 225.278 272.635C225.682 272.923 238.999 242.662 240.511 236.984C244.094 241.054 265.351 262.035 265.363 260.612C265.466 251.032 264.537 238.766 263.55 229.236Z" fill="#1C1C1C"/>
<path d="M181.502 118.612C181.502 118.612 163.013 99.797 154.233 106.737C145.454 113.678 161.853 142.702 173.92 145.022C185.988 147.342 188.352 136.217 188.352 136.217L181.502 118.612Z" fill="white" stroke="black" stroke-width="1.2817" stroke-miterlimit="10"/>
<path d="M159.142 114.934C158.957 114.946 158.963 115.209 159.136 115.248C167.64 117.138 173.074 123.816 177.298 130.981C174.433 128.43 170.94 127.36 167.461 130.84C167.281 131.025 167.531 131.314 167.749 131.23C170.896 129.987 173.344 130.154 175.984 132.397C177.855 133.986 179.316 136.146 180.79 138.094C181.284 138.741 182.508 138.145 182.098 137.37C182.066 137.312 182.034 137.254 182.002 137.197C180.489 127.014 170.216 114.126 159.142 114.934Z" fill="#1A2E35"/>
</svg>
